<svg xmlns="http://www.w3.org/2000/svg" xmlns:xlink="http://www.w3.org/1999/xlink" xmlns:lucid="lucid" width="760" height="420"><g transform="translate(-240 -60)" lucid:page-tab-id="0_0"><path d="M0 0h1760v1360H0z" fill="#fff"/><path d="M360 130c0 27.6-22.4 50-50 50s-50-22.4-50-50 22.4-50 50-50 50 22.4 50 50z" stroke="#000" stroke-width="2" fill="#fff"/><use xlink:href="#a" transform="matrix(1,0,0,1,265,85) translate(11.549999999999997 48.6)"/><path d="M980 410c0 27.6-22.4 50-50 50s-50-22.4-50-50 22.4-50 50-50 50 22.4 50 50z" stroke="#000" stroke-width="2" fill="#fff"/><use xlink:href="#b" transform="matrix(1,0,0,1,885,365) translate(19.525 48.6)"/><path d="M980 130c0 27.6-22.4 50-50 50s-50-22.4-50-50 22.4-50 50-50 50 22.4 50 50z" stroke="#000" stroke-width="2" fill="#fff"/><use xlink:href="#c" transform="matrix(1,0,0,1,885,85) translate(14.049999999999997 48.6)"/><path d="M360 410c0 27.6-22.4 50-50 50s-50-22.4-50-50 22.4-50 50-50 50 22.4 50 50z" stroke="#000" stroke-width="2" fill="#fff"/><use xlink:href="#d" transform="matrix(1,0,0,1,265,365) translate(9.049999999999997 48.6)"/><path d="M361 130h100.76" stroke="#000" stroke-width="2" fill="none"/><path d="M361 131h-1.05l.05-1-.04-1H361zM476.76 130l-14.26 4.64v-9.28z"/><path d="M480 130l-18.5 6v-12zm-16.5 3.26l10.03-3.26-10.03-3.26z"/><path d="M740 130h120.76" stroke="#000" stroke-width="2" fill="none"/><path/><path d="M875.76 130l-14.26 4.64v-9.28z"/><path d="M879 130l-18.5 6v-12zm-16.5 3.26l10.03-3.26-10.03-3.26z"/><path d="M930 181v159.76" stroke="#000" stroke-width="2" fill="none"/><path d="M930 180l1-.04V181h-2v-1.05zM930 355.76l-4.64-14.26h9.28z"/><path d="M930 359l-6-18.5h12zm-3.26-16.5l3.26 10.03 3.26-10.03z"/><path d="M500 410H379.24" stroke="#000" stroke-width="2" fill="none"/><path/><path d="M378.5 414.64L364.24 410l14.26-4.64z"/><path d="M379.5 416l-18.5-6 18.5-6zm-12.03-6l10.03 3.26v-6.52z"/><path d="M879 410H758.24" stroke="#000" stroke-width="2" fill="none"/><path d="M880 410l.04 1H879v-2h1.05zM757.5 414.64L743.24 410l14.26-4.64z"/><path d="M758.5 416l-18.5-6 18.5-6zm-12.03-6l10.03 3.26v-6.52z"/><path d="M317.74 359.65V198.6" stroke="#000" stroke-width="2" fill="none"/><path d="M318.74 360.8l-2-.3v-.85h2zM322.38 197.88h-9.27l4.64-14.27z"/><path d="M323.76 198.88h-12.03l6-18.5zm-9.27-2h6.5l-3.26-10.03z"/><path d="M480 100h260v60H480z" stroke="#000" stroke-opacity="0" stroke-width="2" fill="#fff" fill-opacity="0"/><use xlink:href="#e" transform="matrix(1,0,0,1,485,105) translate(69.07499999999999 28.6)"/><use xlink:href="#f" transform="matrix(1,0,0,1,485,105) translate(108.02499999999999 28.6)"/><use xlink:href="#g" transform="matrix(1,0,0,1,485,105) translate(125.975 28.6)"/><path d="M660 220h320v100H660z" stroke="#000" stroke-opacity="0" stroke-width="2" fill="#fff" fill-opacity="0"/><use xlink:href="#e" transform="matrix(1,0,0,1,665,225) translate(71.55000000000001 48.6)"/><use xlink:href="#h" transform="matrix(1,0,0,1,665,225) translate(110.50000000000001 48.6)"/><use xlink:href="#i" transform="matrix(1,0,0,1,665,225) translate(144.5 48.6)"/><use xlink:href="#j" transform="matrix(1,0,0,1,665,225) translate(203.5 48.6)"/><path d="M500 380h240v60H500z" stroke="#000" stroke-opacity="0" stroke-width="2" fill="#fff" fill-opacity="0"/><g><use xlink:href="#e" transform="matrix(1,0,0,1,505,385) translate(55.074999999999996 28.6)"/><use xlink:href="#f" transform="matrix(1,0,0,1,505,385) translate(94.025 28.6)"/><use xlink:href="#k" transform="matrix(1,0,0,1,505,385) translate(111.975 28.6)"/></g><path d="M320 240h240v60H320z" stroke="#000" stroke-opacity="0" stroke-width="2" fill="#fff" fill-opacity="0"/><g><use xlink:href="#e" transform="matrix(1,0,0,1,325,245) translate(9.050000000000011 28.6)"/><use xlink:href="#h" transform="matrix(1,0,0,1,325,245) translate(48.000000000000014 28.6)"/><use xlink:href="#l" transform="matrix(1,0,0,1,325,245) translate(82.00000000000001 28.6)"/><use xlink:href="#m" transform="matrix(1,0,0,1,325,245) translate(166 28.6)"/></g><defs><path d="M135-143c-3-34-86-38-87 0 15 53 115 12 119 90S17 21 10-45l28-5c4 36 97 45 98 0-10-56-113-15-118-90-4-57 82-63 122-42 12 7 21 19 24 35" id="n"/><path d="M24 0v-261h32V0H24" id="o"/><path d="M100-194c63 0 86 42 84 106H49c0 40 14 67 53 68 26 1 43-12 49-29l28 8c-11 28-37 45-77 45C44 4 14-33 15-96c1-61 26-98 85-98zm52 81c6-60-76-77-97-28-3 7-6 17-6 28h103" id="p"/><path d="M115-194c55 1 70 41 70 98S169 2 115 4C84 4 66-9 55-30l1 105H24l-1-265h31l2 30c10-21 28-34 59-34zm-8 174c40 0 45-34 45-75s-6-73-45-74c-42 0-51 32-51 76 0 43 10 73 51 73" id="q"/><path d="M24-231v-30h32v30H24zM24 0v-190h32V0H24" id="r"/><path d="M117-194c89-4 53 116 60 194h-32v-121c0-31-8-49-39-48C34-167 62-67 57 0H25l-1-190h30c1 10-1 24 2 32 11-22 29-35 61-36" id="s"/><path d="M177-190C167-65 218 103 67 71c-23-6-38-20-44-43l32-5c15 47 100 32 89-28v-30C133-14 115 1 83 1 29 1 15-40 15-95c0-56 16-97 71-98 29-1 48 16 59 35 1-10 0-23 2-32h30zM94-22c36 0 50-32 50-73 0-42-14-75-50-75-39 0-46 34-46 75s6 73 46 73" id="t"/><g id="a"><use transform="matrix(0.05,0,0,0.05,0,0)" xlink:href="#n"/><use transform="matrix(0.05,0,0,0.05,9,0)" xlink:href="#o"/><use transform="matrix(0.05,0,0,0.05,12.949999999999998,0)" xlink:href="#p"/><use transform="matrix(0.05,0,0,0.05,22.95,0)" xlink:href="#p"/><use transform="matrix(0.05,0,0,0.05,32.95,0)" xlink:href="#q"/><use transform="matrix(0.05,0,0,0.05,42.95,0)" xlink:href="#r"/><use transform="matrix(0.05,0,0,0.05,46.900000000000006,0)" xlink:href="#s"/><use transform="matrix(0.05,0,0,0.05,56.900000000000006,0)" xlink:href="#t"/></g><path d="M30 0v-248h187v28H63v79h144v27H63v87h162V0H30" id="u"/><path d="M141-36C126-15 110 5 73 4 37 3 15-17 15-53c-1-64 63-63 125-63 3-35-9-54-41-54-24 1-41 7-42 31l-33-3c5-37 33-52 76-52 45 0 72 20 72 64v82c-1 20 7 32 28 27v20c-31 9-61-2-59-35zM48-53c0 20 12 33 32 33 41-3 63-29 60-74-43 2-92-5-92 41" id="v"/><path d="M59-47c-2 24 18 29 38 22v24C64 9 27 4 27-40v-127H5v-23h24l9-43h21v43h35v23H59v120" id="w"/><g id="b"><use transform="matrix(0.05,0,0,0.05,0,0)" xlink:href="#u"/><use transform="matrix(0.05,0,0,0.05,12,0)" xlink:href="#v"/><use transform="matrix(0.05,0,0,0.05,22,0)" xlink:href="#w"/><use transform="matrix(0.05,0,0,0.05,27,0)" xlink:href="#r"/><use transform="matrix(0.05,0,0,0.05,30.950000000000003,0)" xlink:href="#s"/><use transform="matrix(0.05,0,0,0.05,40.95,0)" xlink:href="#t"/></g><path d="M197 0v-115H63V0H30v-248h33v105h134v-105h34V0h-34" id="x"/><path d="M84 4C-5 8 30-112 23-190h32v120c0 31 7 50 39 49 72-2 45-101 50-169h31l1 190h-30c-1-10 1-25-2-33-11 22-28 36-60 37" id="y"/><g id="c"><use transform="matrix(0.05,0,0,0.05,0,0)" xlink:href="#x"/><use transform="matrix(0.05,0,0,0.05,12.950000000000001,0)" xlink:href="#y"/><use transform="matrix(0.05,0,0,0.05,22.950000000000003,0)" xlink:href="#s"/><use transform="matrix(0.05,0,0,0.05,32.95,0)" xlink:href="#w"/><use transform="matrix(0.05,0,0,0.05,37.95,0)" xlink:href="#r"/><use transform="matrix(0.05,0,0,0.05,41.900000000000006,0)" xlink:href="#s"/><use transform="matrix(0.05,0,0,0.05,51.900000000000006,0)" xlink:href="#t"/></g><path d="M30-248c87 1 191-15 191 75 0 78-77 80-158 76V0H30v-248zm33 125c57 0 124 11 124-50 0-59-68-47-124-48v98" id="z"/><path d="M114-163C36-179 61-72 57 0H25l-1-190h30c1 12-1 29 2 39 6-27 23-49 58-41v29" id="A"/><g id="d"><use transform="matrix(0.05,0,0,0.05,0,0)" xlink:href="#z"/><use transform="matrix(0.05,0,0,0.05,12,0)" xlink:href="#A"/><use transform="matrix(0.05,0,0,0.05,17.95,0)" xlink:href="#p"/><use transform="matrix(0.05,0,0,0.05,27.950000000000003,0)" xlink:href="#p"/><use transform="matrix(0.05,0,0,0.05,37.95,0)" xlink:href="#s"/><use transform="matrix(0.05,0,0,0.05,47.95,0)" xlink:href="#r"/><use transform="matrix(0.05,0,0,0.05,51.900000000000006,0)" xlink:href="#s"/><use transform="matrix(0.05,0,0,0.05,61.900000000000006,0)" xlink:href="#t"/></g><path d="M30 0v-248h33v221h125V0H30" id="B"/><path d="M100-194c62-1 85 37 85 99 1 63-27 99-86 99S16-35 15-95c0-66 28-99 85-99zM99-20c44 1 53-31 53-75 0-43-8-75-51-75s-53 32-53 75 10 74 51 75" id="C"/><g id="e"><use transform="matrix(0.05,0,0,0.05,0,0)" xlink:href="#B"/><use transform="matrix(0.05,0,0,0.05,10,0)" xlink:href="#r"/><use transform="matrix(0.05,0,0,0.05,13.949999999999998,0)" xlink:href="#C"/><use transform="matrix(0.05,0,0,0.05,23.95,0)" xlink:href="#s"/></g><g id="f"><use transform="matrix(0.05,0,0,0.05,0,0)" xlink:href="#r"/><use transform="matrix(0.05,0,0,0.05,3.95,0)" xlink:href="#n"/></g><path d="M106-169C34-169 62-67 57 0H25v-261h32l-1 103c12-21 28-36 61-36 89 0 53 116 60 194h-32v-121c2-32-8-49-39-48" id="D"/><path d="M179-190L93 31C79 59 56 82 12 73V49c39 6 53-20 64-50L1-190h34L92-34l54-156h33" id="E"/><g id="g"><use transform="matrix(0.05,0,0,0.05,0,0)" xlink:href="#D"/><use transform="matrix(0.05,0,0,0.05,10,0)" xlink:href="#y"/><use transform="matrix(0.05,0,0,0.05,20,0)" xlink:href="#s"/><use transform="matrix(0.05,0,0,0.05,30,0)" xlink:href="#t"/><use transform="matrix(0.05,0,0,0.05,40,0)" xlink:href="#A"/><use transform="matrix(0.05,0,0,0.05,45.95,0)" xlink:href="#E"/></g><g id="h"><use transform="matrix(0.05,0,0,0.05,0,0)" xlink:href="#D"/><use transform="matrix(0.05,0,0,0.05,10,0)" xlink:href="#v"/><use transform="matrix(0.05,0,0,0.05,20,0)" xlink:href="#n"/></g><path d="M96-169c-40 0-48 33-48 73s9 75 48 75c24 0 41-14 43-38l32 2c-6 37-31 61-74 61-59 0-76-41-82-99-10-93 101-131 147-64 4 7 5 14 7 22l-32 3c-4-21-16-35-41-35" id="F"/><g id="i"><use transform="matrix(0.05,0,0,0.05,0,0)" xlink:href="#F"/><use transform="matrix(0.05,0,0,0.05,9,0)" xlink:href="#v"/><use transform="matrix(0.05,0,0,0.05,19,0)" xlink:href="#y"/><use transform="matrix(0.05,0,0,0.05,29,0)" xlink:href="#t"/><use transform="matrix(0.05,0,0,0.05,39,0)" xlink:href="#D"/><use transform="matrix(0.05,0,0,0.05,49,0)" xlink:href="#w"/></g><g id="j"><use transform="matrix(0.05,0,0,0.05,0,0)" xlink:href="#q"/><use transform="matrix(0.05,0,0,0.05,10,0)" xlink:href="#A"/><use transform="matrix(0.05,0,0,0.05,15.949999999999998,0)" xlink:href="#p"/><use transform="matrix(0.05,0,0,0.05,25.950000000000003,0)" xlink:href="#E"/></g><path d="M101-234c-31-9-42 10-38 44h38v23H63V0H32v-167H5v-23h27c-7-52 17-82 69-68v24" id="G"/><g id="k"><use transform="matrix(0.05,0,0,0.05,0,0)" xlink:href="#G"/><use transform="matrix(0.05,0,0,0.05,5,0)" xlink:href="#p"/><use transform="matrix(0.05,0,0,0.05,15,0)" xlink:href="#v"/><use transform="matrix(0.05,0,0,0.05,25,0)" xlink:href="#n"/><use transform="matrix(0.05,0,0,0.05,34,0)" xlink:href="#w"/><use transform="matrix(0.05,0,0,0.05,39,0)" xlink:href="#r"/><use transform="matrix(0.05,0,0,0.05,42.95,0)" xlink:href="#s"/><use transform="matrix(0.05,0,0,0.05,52.95,0)" xlink:href="#t"/></g><path d="M141 0L90-78 38 0H4l68-98-65-92h35l48 74 47-74h35l-64 92 68 98h-35" id="H"/><path d="M85-194c31 0 48 13 60 33l-1-100h32l1 261h-30c-2-10 0-23-3-31C134-8 116 4 85 4 32 4 16-35 15-94c0-66 23-100 70-100zm9 24c-40 0-46 34-46 75 0 40 6 74 45 74 42 0 51-32 51-76 0-42-9-74-50-73" id="I"/><g id="l"><use transform="matrix(0.05,0,0,0.05,0,0)" xlink:href="#p"/><use transform="matrix(0.05,0,0,0.05,10,0)" xlink:href="#H"/><use transform="matrix(0.05,0,0,0.05,19,0)" xlink:href="#q"/><use transform="matrix(0.05,0,0,0.05,29,0)" xlink:href="#p"/><use transform="matrix(0.05,0,0,0.05,39,0)" xlink:href="#s"/><use transform="matrix(0.05,0,0,0.05,49,0)" xlink:href="#I"/><use transform="matrix(0.05,0,0,0.05,59,0)" xlink:href="#p"/><use transform="matrix(0.05,0,0,0.05,69,0)" xlink:href="#I"/></g><g id="m"><use transform="matrix(0.05,0,0,0.05,0,0)" xlink:href="#p"/><use transform="matrix(0.05,0,0,0.05,10,0)" xlink:href="#s"/><use transform="matrix(0.05,0,0,0.05,20,0)" xlink:href="#p"/><use transform="matrix(0.05,0,0,0.05,30,0)" xlink:href="#A"/><use transform="matrix(0.05,0,0,0.05,35.95,0)" xlink:href="#t"/><use transform="matrix(0.05,0,0,0.05,45.95,0)" xlink:href="#E"/></g></defs></g></svg>